<svg viewBox="0 0 24 24" role="img" width="196" height="196" fill-rule="evenodd" style="color: #ff3e00;" xmlns="http://www.w3.org/2000/svg">
  <path fill="currentColor" d="M7.5 18.5c-1.4.4-2.9-.2-3.7-1.4-.5-.7-.7-1.6-.5-2.4 0-.1.1-.3.1-.4V14l.2.2c.5.4 1.1.7 1.7.9h.2v.2c0 .2 0 .5.2.6.2.4.7.5 1.1.4.1 0 .2-.1.3-.1l4.4-2.8c.2-.1.4-.4.4-.6 0-.3 0-.5-.2-.7-.2-.4-.7-.5-1.1-.4-.1 0-.2.1-.3.1l-1.7 1.1c-.3.2-.6.3-.9.4-1.4.3-2.8-.3-3.7-1.4-.5-.7-.7-1.6-.5-2.4.1-.8.6-1.6 1.4-2l4.4-2.8c.3-.2.6-.3.9-.4 1.4-.4 2.9.2 3.7 1.4.5.7.7 1.6.5 2.4 0 .1-.1.3-.1.4l-.1.3-.2-.2c-.5-.4-1.1-.7-1.7-.9h-.2v-.2c0-.2 0-.5-.2-.6-.2-.4-.7-.5-1.1-.4-.1 0-.2.1-.3.1L6.2 9.3c-.2.1-.4.4-.4.6 0 .3 0 .5.2.7.2.4.6.6 1 .5.1 0 .2-.1.3-.1L9 9.9c.3-.2.6-.3.9-.4 1.4-.4 2.9.2 3.7 1.4.5.7.7 1.6.5 2.4-.1.8-.6 1.6-1.4 2l-4.4 2.8c-.2.2-.5.3-.8.4m8.1-14C13.9 2 10.4 1.3 7.9 2.8L3.6 5.6c-1.2.7-2 2-2.3 3.4-.2 1.2 0 2.3.5 3.4-.4.6-.6 1.2-.7 1.9-.3 1.4.1 2.9.9 4 1.7 2.5 5.2 3.2 7.7 1.6l4.4-2.8c1.2-.7 2-2 2.3-3.4.2-1.2 0-2.3-.5-3.4.4-.6.6-1.2.7-1.9.2-1.3-.2-2.8-1-3.9z"/>
  <path fill="none" stroke="currentColor" stroke-miterlimit="10" stroke-width="1" d="M12 17.6h10v2.5H12z"/>
</svg>
